<svg viewBox="0 0 600 400" xmlns="http://www.w3.org/2000/svg">
<g transform="translate(72, 364)">
<g>
<g>
<rect fill="#DD3355" height="10" width="10" x="67" y="-345"/>
<rect fill="#DD3355" height="10" width="10" x="403" y="-118.33333333333333"/>
<rect fill="#DD3355" height="10" width="10" x="67" y="-175"/>
<rect fill="#DD3355" height="10" width="10" x="403" y="-288.3333333333333"/>
<rect fill="#DD3355" height="10" width="10" x="439" y="-175"/>
<rect fill="#DD3355" height="10" width="10" x="391" y="-231.66666666666666"/>
<rect fill="#DD3355" height="10" width="10" x="463" y="-175"/>
<rect fill="#DD3355" height="10" width="10" x="247" y="-288.3333333333333"/>
<rect fill="#DD3355" height="10" width="10" x="307" y="-231.66666666666666"/>
<rect fill="#DD3355" height="10" width="10" x="67" y="-231.66666666666666"/>
<rect fill="#DD3355" height="10" width="10" x="259" y="-345"/>
<rect fill="#DD3355" height="10" width="10" x="343" y="-345"/>
<rect fill="#DD3355" height="10" width="10" x="127" y="-231.66666666666666"/>
<rect fill="#DD3355" height="10" width="10" x="439" y="-345"/>
<rect fill="#DD3355" height="10" width="10" x="427" y="-61.666666666666664"/>
<rect fill="#DD3355" height="10" width="10" x="163" y="-231.66666666666666"/>
<rect fill="#DD3355" height="10" width="10" x="379" y="-231.66666666666666"/>
<rect fill="#DD3355" height="10" width="10" x="163" y="-61.666666666666664"/>
<rect fill="#DD3355" height="10" width="10" x="7" y="-345"/>
<rect fill="#DD3355" height="10" width="10" x="343" y="-231.66666666666666"/>
<rect fill="#DD3355" height="10" width="10" x="139" y="-175"/>
<rect fill="#DD3355" height="10" width="10" x="43" y="-61.666666666666664"/>
<rect fill="#DD3355" height="10" width="10" x="463" y="-288.3333333333333"/>
<rect fill="#DD3355" height="10" width="10" x="7" y="-288.3333333333333"/>
<rect fill="#DD3355" height="10" width="10" x="211" y="-345"/>
<rect fill="#DD3355" height="10" width="10" x="127" y="-288.3333333333333"/>
<rect fill="#DD3355" height="10" width="10" x="187" y="-288.3333333333333"/>
<rect fill="#DD3355" height="10" width="10" x="403" y="-345"/>
<rect fill="#DD3355" height="10" width="10" x="19" y="-345"/>
<rect fill="#DD3355" height="10" width="10" x="307" y="-288.3333333333333"/>
<rect fill="#DD3355" height="10" width="10" x="103" y="-175"/>
<rect fill="#DD3355" height="10" width="10" x="223" y="-175"/>
<rect fill="#DD3355" height="10" width="10" x="259" y="-118.33333333333333"/>
<rect fill="#DD3355" height="10" width="10" x="223" y="-61.666666666666664"/>
<rect fill="#DD3355" height="10" width="10" x="187" y="-231.66666666666666"/>
<rect fill="#DD3355" height="10" width="10" x="319" y="-175"/>
<rect fill="#DD3355" height="10" width="10" x="403" y="-231.66666666666666"/>
<rect fill="#DD3355" height="10" width="10" x="283" y="-345"/>
<rect fill="#DD3355" height="10" width="10" x="331" y="-175"/>
<rect fill="#DD3355" height="10" width="10" x="427" y="-231.66666666666666"/>
<rect fill="#DD3355" height="10" width="10" x="343" y="-61.666666666666664"/>
<rect fill="#DD3355" height="10" width="10" x="31" y="-175"/>
<rect fill="#DD3355" height="10" width="10" x="283" y="-118.33333333333333"/>
<rect fill="#DD3355" height="10" width="10" x="7" y="-61.666666666666664"/>
<rect fill="#DD3355" height="10" width="10" x="31" y="-61.666666666666664"/>
<rect fill="#DD3355" height="10" width="10" x="223" y="-118.33333333333333"/>
<rect fill="#DD3355" height="10" width="10" x="319" y="-345"/>
<rect fill="#DD3355" height="10" width="10" x="463" y="-231.66666666666666"/>
<rect fill="#DD3355" height="10" width="10" x="451" y="-345"/>
<rect fill="#DD3355" height="10" width="10" x="151" y="-345"/>
<rect fill="#DD3355" height="10" width="10" x="451" y="-175"/>
<rect fill="#DD3355" height="10" width="10" x="91" y="-61.666666666666664"/>
<rect fill="#DD3355" height="10" width="10" x="283" y="-288.3333333333333"/>
<rect fill="#DD3355" height="10" width="10" x="223" y="-288.3333333333333"/>
<rect fill="#DD3355" height="10" width="10" x="199" y="-345"/>
<rect fill="#DD3355" height="10" width="10" x="343" y="-288.3333333333333"/>
<rect fill="#DD3355" height="10" width="10" x="427" y="-175"/>
<rect fill="#DD3355" height="10" width="10" x="19" y="-231.66666666666666"/>
<rect fill="#DD3355" height="10" width="10" x="163" y="-175"/>
<rect fill="#DD3355" height="10" width="10" x="163" y="-118.33333333333333"/>
<rect fill="#DD3355" height="10" width="10" x="259" y="-175"/>
<rect fill="#DD3355" height="10" width="10" x="463" y="-118.33333333333333"/>
<rect fill="#DD3355" height="10" width="10" x="271" y="-175"/>
<rect fill="#DD3355" height="10" width="10" x="283" y="-61.666666666666664"/>
<rect fill="#DD3355" height="10" width="10" x="139" y="-345"/>
<rect fill="#DD3355" height="10" width="10" x="103" y="-345"/>
<rect fill="#DD3355" height="10" width="10" x="199" y="-175"/>
<rect fill="#DD3355" height="10" width="10" x="223" y="-345"/>
<rect fill="#DD3355" height="10" width="10" x="271" y="-345"/>
<rect fill="#DD3355" height="10" width="10" x="163" y="-288.3333333333333"/>
<rect fill="#DD3355" height="10" width="10" x="367" y="-175"/>
<rect fill="#DD3355" height="10" width="10" x="127" y="-61.666666666666664"/>
<rect fill="#DD3355" height="10" width="10" x="247" y="-231.66666666666666"/>
<rect fill="#DD3355" height="10" width="10" x="79" y="-61.666666666666664"/>
<rect fill="#DD3355" height="10" width="10" x="367" y="-61.666666666666664"/>
<rect fill="#DD3355" height="10" width="10" x="463" y="-61.666666666666664"/>
<rect fill="#DD3355" height="10" width="10" x="343" y="-118.33333333333333"/>
<rect fill="#DD3355" height="10" width="10" x="223" y="-231.66666666666666"/>
<rect fill="#DD3355" height="10" width="10" x="67" y="-288.3333333333333"/>
<rect fill="#DD3355" height="10" width="10" x="403" y="-61.666666666666664"/>
<rect fill="#DD3355" height="10" width="10" x="343" y="-175"/>
<rect fill="#DD3355" height="10" width="10" x="151" y="-175"/>
<rect fill="#DD3355" height="10" width="10" x="427" y="-288.3333333333333"/>
<rect fill="#DD3355" height="10" width="10" x="211" y="-175"/>
<rect fill="#DD3355" height="10" width="10" x="31" y="-345"/>
<rect fill="#DD3355" height="10" width="10" x="19" y="-61.666666666666664"/>
<rect fill="#DD3355" height="10" width="10" x="103" y="-118.33333333333333"/>
<rect fill="#DD3355" height="10" width="10" x="367" y="-118.33333333333333"/>
<rect fill="#DD3355" height="10" width="10" x="331" y="-345"/>
<rect fill="#DD3355" height="10" width="10" x="127" y="-118.33333333333333"/>
<rect fill="#DD3355" height="10" width="10" x="43" y="-118.33333333333333"/>
<rect fill="#DD3355" height="10" width="10" x="103" y="-231.66666666666666"/>
<rect fill="#DD3355" height="10" width="10" x="367" y="-288.3333333333333"/>
<rect fill="#DD3355" height="10" width="10" x="403" y="-175"/>
<rect fill="#DD3355" height="10" width="10" x="127" y="-175"/>
<rect fill="#DD3355" height="10" width="10" x="283" y="-231.66666666666666"/>
<rect fill="#DD3355" height="10" width="10" x="43" y="-345"/>
<rect fill="#DD3355" height="10" width="10" x="427" y="-118.33333333333333"/>
<rect fill="#DD3355" height="10" width="10" x="247" y="-61.666666666666664"/>
<rect fill="#DD3355" height="10" width="10" x="67" y="-118.33333333333333"/>
<rect fill="#DD3355" height="10" width="10" x="283" y="-175"/>
<rect fill="#DD3355" height="10" width="10" x="367" y="-231.66666666666666"/>
<rect fill="#DD3355" height="10" width="10" x="367" y="-345"/>
<rect fill="#DD3355" height="10" width="10" x="103" y="-288.3333333333333"/>
</g>
</g>
<g>
<g>
<rect fill="#000000" height="10" width="10" x="7" y="-175"/>
<rect fill="#000000" height="10" width="10" x="31" y="-118.33333333333333"/>
<rect fill="#000000" height="10" width="10" x="163" y="-345"/>
<rect fill="#000000" height="10" width="10" x="91" y="-288.3333333333333"/>
<rect fill="#000000" height="10" width="10" x="-5" y="-175"/>
<rect fill="#000000" height="10" width="10" x="235" y="-288.3333333333333"/>
<rect fill="#000000" height="10" width="10" x="67" y="-61.666666666666664"/>
<rect fill="#000000" height="10" width="10" x="187" y="-118.33333333333333"/>
<rect fill="#000000" height="10" width="10" x="451" y="-288.3333333333333"/>
<rect fill="#000000" height="10" width="10" x="31" y="-288.3333333333333"/>
<rect fill="#000000" height="10" width="10" x="379" y="-61.666666666666664"/>
<rect fill="#000000" height="10" width="10" x="451" y="-118.33333333333333"/>
<rect fill="#000000" height="10" width="10" x="247" y="-118.33333333333333"/>
<rect fill="#000000" height="10" width="10" x="415" y="-231.66666666666666"/>
<rect fill="#000000" height="10" width="10" x="307" y="-345"/>
<rect fill="#000000" height="10" width="10" x="211" y="-231.66666666666666"/>
<rect fill="#000000" height="10" width="10" x="55" y="-288.3333333333333"/>
<rect fill="#000000" height="10" width="10" x="391" y="-175"/>
<rect fill="#000000" height="10" width="10" x="55" y="-61.666666666666664"/>
<rect fill="#000000" height="10" width="10" x="355" y="-175"/>
<rect fill="#000000" height="10" width="10" x="331" y="-288.3333333333333"/>
<rect fill="#000000" height="10" width="10" x="271" y="-231.66666666666666"/>
<rect fill="#000000" height="10" width="10" x="235" y="-345"/>
<rect fill="#000000" height="10" width="10" x="391" y="-118.33333333333333"/>
<rect fill="#000000" height="10" width="10" x="175" y="-61.666666666666664"/>
<rect fill="#000000" height="10" width="10" x="127" y="-345"/>
<rect fill="#000000" height="10" width="10" x="451" y="-61.666666666666664"/>
<rect fill="#000000" height="10" width="10" x="79" y="-231.66666666666666"/>
<rect fill="#000000" height="10" width="10" x="187" y="-345"/>
<rect fill="#000000" height="10" width="10" x="55" y="-231.66666666666666"/>
<rect fill="#000000" height="10" width="10" x="79" y="-175"/>
<rect fill="#000000" height="10" width="10" x="175" y="-231.66666666666666"/>
<rect fill="#000000" height="10" width="10" x="115" y="-345"/>
<rect fill="#000000" height="10" width="10" x="115" y="-288.3333333333333"/>
<rect fill="#000000" height="10" width="10" x="235" y="-118.33333333333333"/>
<rect fill="#000000" height="10" width="10" x="55" y="-345"/>
<rect fill="#000000" height="10" width="10" x="391" y="-288.3333333333333"/>
<rect fill="#000000" height="10" width="10" x="295" y="-118.33333333333333"/>
<rect fill="#000000" height="10" width="10" x="91" y="-231.66666666666666"/>
<rect fill="#000000" height="10" width="10" x="319" y="-288.3333333333333"/>
<rect fill="#000000" height="10" width="10" x="415" y="-345"/>
<rect fill="#000000" height="10" width="10" x="463" y="-345"/>
<rect fill="#000000" height="10" width="10" x="199" y="-231.66666666666666"/>
<rect fill="#000000" height="10" width="10" x="19" y="-175"/>
<rect fill="#000000" height="10" width="10" x="271" y="-288.3333333333333"/>
<rect fill="#000000" height="10" width="10" x="175" y="-345"/>
<rect fill="#000000" height="10" width="10" x="199" y="-288.3333333333333"/>
<rect fill="#000000" height="10" width="10" x="259" y="-288.3333333333333"/>
<rect fill="#000000" height="10" width="10" x="427" y="-345"/>
<rect fill="#000000" height="10" width="10" x="-5" y="-345"/>
<rect fill="#000000" height="10" width="10" x="355" y="-231.66666666666666"/>
<rect fill="#000000" height="10" width="10" x="259" y="-61.666666666666664"/>
<rect fill="#000000" height="10" width="10" x="319" y="-61.666666666666664"/>
<rect fill="#000000" height="10" width="10" x="7" y="-118.33333333333333"/>
<rect fill="#000000" height="10" width="10" x="151" y="-288.3333333333333"/>
<rect fill="#000000" height="10" width="10" x="235" y="-231.66666666666666"/>
<rect fill="#000000" height="10" width="10" x="319" y="-231.66666666666666"/>
<rect fill="#000000" height="10" width="10" x="271" y="-118.33333333333333"/>
<rect fill="#000000" height="10" width="10" x="451" y="-231.66666666666666"/>
<rect fill="#000000" height="10" width="10" x="139" y="-61.666666666666664"/>
<rect fill="#000000" height="10" width="10" x="79" y="-288.3333333333333"/>
<rect fill="#000000" height="10" width="10" x="187" y="-61.666666666666664"/>
<rect fill="#000000" height="10" width="10" x="115" y="-231.66666666666666"/>
<rect fill="#000000" height="10" width="10" x="139" y="-231.66666666666666"/>
<rect fill="#000000" height="10" width="10" x="331" y="-231.66666666666666"/>
<rect fill="#000000" height="10" width="10" x="439" y="-288.3333333333333"/>
<rect fill="#000000" height="10" width="10" x="331" y="-118.33333333333333"/>
<rect fill="#000000" height="10" width="10" x="91" y="-345"/>
<rect fill="#000000" height="10" width="10" x="43" y="-175"/>
<rect fill="#000000" height="10" width="10" x="211" y="-118.33333333333333"/>
<rect fill="#000000" height="10" width="10" x="439" y="-118.33333333333333"/>
<rect fill="#000000" height="10" width="10" x="271" y="-61.666666666666664"/>
<rect fill="#000000" height="10" width="10" x="415" y="-175"/>
<rect fill="#000000" height="10" width="10" x="295" y="-288.3333333333333"/>
<rect fill="#000000" height="10" width="10" x="391" y="-345"/>
<rect fill="#000000" height="10" width="10" x="175" y="-175"/>
<rect fill="#000000" height="10" width="10" x="439" y="-61.666666666666664"/>
<rect fill="#000000" height="10" width="10" x="31" y="-231.66666666666666"/>
<rect fill="#000000" height="10" width="10" x="355" y="-118.33333333333333"/>
<rect fill="#000000" height="10" width="10" x="43" y="-231.66666666666666"/>
<rect fill="#000000" height="10" width="10" x="307" y="-175"/>
<rect fill="#000000" height="10" width="10" x="-5" y="-118.33333333333333"/>
<rect fill="#000000" height="10" width="10" x="151" y="-231.66666666666666"/>
<rect fill="#000000" height="10" width="10" x="199" y="-61.666666666666664"/>
<rect fill="#000000" height="10" width="10" x="-5" y="-231.66666666666666"/>
<rect fill="#000000" height="10" width="10" x="7" y="-231.66666666666666"/>
<rect fill="#000000" height="10" width="10" x="379" y="-175"/>
<rect fill="#000000" height="10" width="10" x="55" y="-175"/>
<rect fill="#000000" height="10" width="10" x="307" y="-118.33333333333333"/>
<rect fill="#000000" height="10" width="10" x="295" y="-345"/>
<rect fill="#000000" height="10" width="10" x="355" y="-61.666666666666664"/>
<rect fill="#000000" height="10" width="10" x="19" y="-288.3333333333333"/>
<rect fill="#000000" height="10" width="10" x="355" y="-288.3333333333333"/>
<rect fill="#000000" height="10" width="10" x="415" y="-288.3333333333333"/>
<rect fill="#000000" height="10" width="10" x="295" y="-175"/>
<rect fill="#000000" height="10" width="10" x="331" y="-61.666666666666664"/>
<rect fill="#000000" height="10" width="10" x="235" y="-61.666666666666664"/>
<rect fill="#000000" height="10" width="10" x="103" y="-61.666666666666664"/>
<rect fill="#000000" height="10" width="10" x="211" y="-288.3333333333333"/>
<rect fill="#000000" height="10" width="10" x="187" y="-175"/>
<rect fill="#000000" height="10" width="10" x="19" y="-118.33333333333333"/>
<rect fill="#000000" height="10" width="10" x="379" y="-345"/>
<rect fill="#000000" height="10" width="10" x="307" y="-61.666666666666664"/>
<rect fill="#000000" height="10" width="10" x="379" y="-118.33333333333333"/>
<rect fill="#000000" height="10" width="10" x="175" y="-288.3333333333333"/>
<rect fill="#000000" height="10" width="10" x="235" y="-175"/>
<rect fill="#000000" height="10" width="10" x="-5" y="-288.3333333333333"/>
<rect fill="#000000" height="10" width="10" x="115" y="-175"/>
<rect fill="#000000" height="10" width="10" x="115" y="-61.666666666666664"/>
<rect fill="#000000" height="10" width="10" x="151" y="-118.33333333333333"/>
<rect fill="#000000" height="10" width="10" x="139" y="-288.3333333333333"/>
<rect fill="#000000" height="10" width="10" x="151" y="-61.666666666666664"/>
<rect fill="#000000" height="10" width="10" x="415" y="-61.666666666666664"/>
<rect fill="#000000" height="10" width="10" x="295" y="-61.666666666666664"/>
<rect fill="#000000" height="10" width="10" x="259" y="-231.66666666666666"/>
<rect fill="#000000" height="10" width="10" x="79" y="-345"/>
<rect fill="#000000" height="10" width="10" x="79" y="-118.33333333333333"/>
<rect fill="#000000" height="10" width="10" x="439" y="-231.66666666666666"/>
<rect fill="#000000" height="10" width="10" x="295" y="-231.66666666666666"/>
<rect fill="#000000" height="10" width="10" x="247" y="-175"/>
<rect fill="#000000" height="10" width="10" x="415" y="-118.33333333333333"/>
<rect fill="#000000" height="10" width="10" x="391" y="-61.666666666666664"/>
<rect fill="#000000" height="10" width="10" x="199" y="-118.33333333333333"/>
<rect fill="#000000" height="10" width="10" x="55" y="-118.33333333333333"/>
<rect fill="#000000" height="10" width="10" x="247" y="-345"/>
<rect fill="#000000" height="10" width="10" x="379" y="-288.3333333333333"/>
<rect fill="#000000" height="10" width="10" x="115" y="-118.33333333333333"/>
<rect fill="#000000" height="10" width="10" x="319" y="-118.33333333333333"/>
<rect fill="#000000" height="10" width="10" x="355" y="-345"/>
<rect fill="#000000" height="10" width="10" x="175" y="-118.33333333333333"/>
<rect fill="#000000" height="10" width="10" x="211" y="-61.666666666666664"/>
<rect fill="#000000" height="10" width="10" x="-5" y="-61.666666666666664"/>
<rect fill="#000000" height="10" width="10" x="91" y="-118.33333333333333"/>
<rect fill="#000000" height="10" width="10" x="91" y="-175"/>
<rect fill="#000000" height="10" width="10" x="43" y="-288.3333333333333"/>
<rect fill="#000000" height="10" width="10" x="139" y="-118.33333333333333"/>
</g>
</g>
<g>
<g>
<line stroke="black" stroke-width="1" x1="0" x2="0" y1="0" y2="10"/>
<line stroke="black" stroke-width="1" x1="120" x2="120" y1="0" y2="10"/>
<line stroke="black" stroke-width="1" x1="240" x2="240" y1="0" y2="10"/>
<line stroke="black" stroke-width="1" x1="360" x2="360" y1="0" y2="10"/>
<line stroke="black" stroke-width="1" x1="480" x2="480" y1="0" y2="10"/>
</g>
<line stroke="black" stroke-width="1" x1="0" x2="480" y1="0" y2="0"/>
<g>
<text font-size="12" text-anchor="middle" x="0" y="20">
0
</text>
<text font-size="12" text-anchor="middle" x="120" y="20">
10
</text>
<text font-size="12" text-anchor="middle" x="240" y="20">
20
</text>
<text font-size="12" text-anchor="middle" x="360" y="20">
30
</text>
<text font-size="12" text-anchor="middle" x="480" y="20">
40
</text>
</g>
<text font-size="12" text-anchor="middle" x="240" y="30">

</text>
</g>
<g>
<g>
<line stroke="black" stroke-width="1" x1="0" x2="-10" y1="-0" y2="-0"/>
<line stroke="black" stroke-width="1" x1="0" x2="-10" y1="-113.33333333333333" y2="-113.33333333333333"/>
<line stroke="black" stroke-width="1" x1="0" x2="-10" y1="-226.66666666666666" y2="-226.66666666666666"/>
<line stroke="black" stroke-width="1" x1="0" x2="-10" y1="-340" y2="-340"/>
</g>
<line stroke="black" stroke-width="1" x1="0" x2="0" y1="0" y2="-340"/>
<g>
<text dominant-baseline="middle" font-size="12" text-anchor="end" x="-15" y="-0">
0
</text>
<text dominant-baseline="middle" font-size="12" text-anchor="end" x="-15" y="-113.33333333333333">
2
</text>
<text dominant-baseline="middle" font-size="12" text-anchor="end" x="-15" y="-226.66666666666666">
4
</text>
<text dominant-baseline="middle" font-size="12" text-anchor="end" x="-15" y="-340">
6
</text>
</g>
<text font-size="12" text-anchor="middle" transform="rotate(-90 -12 -170)" x="-12" y="-182">

</text>
</g>
</g>
</svg>